<svg width="16" height="16" viewBox="0 0 16 16" fill="none" xmlns="http://www.w3.org/2000/svg">
<path d="M5.5 13C5.08333 13 4.72917 12.8542 4.4375 12.5625C4.14583 12.2708 4 11.9167 4 11.5V10.5H13.5V4H14.5C14.9167 4 15.2708 4.14583 15.5625 4.4375C15.8542 4.72917 16 5.08333 16 5.5V16L13 13H5.5ZM0 12V1.5C0 1.08333 0.145833 0.729167 0.4375 0.4375C0.729167 0.145833 1.08333 0 1.5 0H10.5C10.9167 0 11.2708 0.145833 11.5625 0.4375C11.8542 0.729167 12 1.08333 12 1.5V7.5C12 7.91667 11.8542 8.27083 11.5625 8.5625C11.2708 8.85417 10.9167 9 10.5 9H3L0 12Z" fill="white"/>
</svg>
