<svg width="20" height="21" viewBox="0 0 20 21" fill="none" xmlns="http://www.w3.org/2000/svg">
<path d="M9.25 15.5H10.75V12.375L11.9375 13.5625L13 12.5L10 9.5L7 12.5L8.0625 13.5625L9.25 12.375V15.5ZM5.49417 18.5C5.08139 18.5 4.72917 18.3531 4.4375 18.0594C4.14583 17.7656 4 17.4125 4 17V4C4 3.5875 4.14687 3.23438 4.44062 2.94063C4.73437 2.64688 5.0875 2.5 5.5 2.5H12L16 6.5V17C16 17.4125 15.8531 17.7656 15.5592 18.0594C15.2653 18.3531 14.9119 18.5 14.4992 18.5H5.49417ZM11 7.5H14.5L11 4V7.5Z" fill="white"/>
</svg>
